 <svg
  viewboxsize="575" 
  data-root-id="5043296980200" 
  xmlns="http://www.w3.org/2000/svg"
   xmlns:xlink="http://www.w3.org/1999/xlink"
    version="1.1" 
    id="Layer_1" 
    x="145"
     y="250.485" 
     viewBox="248.60755920410156 431.0341796875 703.1924438476562 138.16583251953125" 
    xml:space="preserve" height="50" width="130" preserveAspectRatio="xMinYMin" zoom="1" 
    editortype="buyer" data-layer-role="icon" style="position: absolute; height: 50px; width: 130px; ">
    <path class="st0" 
    d="M262.8,529.7h5.9c0.6,0,1.2-0.3,1.5-0.9c3.6-6.5,5.8-13.8,6.8-17.5c0.4-1.6,0.1-3.3-0.9-4.6  
     c-0.7-0.9-1.5-1.9-2.4-3c-1.6-1.9-3.3-4-4.7-5.6c-1.4-1.6-2.4-2.7-2.4-2.7c-1.2,1.4,0.1,3.8,0.1,3.8c3,5.2,1.5,10.1,1.5,10.1 
       c-3.9,9.1-6.1,14.7-7.1,18C260.7,528.6,261.6,529.7,262.8,529.7z" 
       name="Layer 1" zoom="1" data-layer-id="0908663380200" style="fill: #0089A6;">
       </path>


       <path d="M505.5,520.9L505.5,520.9C505.5,520.9,505.5,520.9,505.5,520.9L505.5,520.9z" 
       name="Layer 2" zoom="1" data-layer-id="1342667980200" style="fill: rgb(255, 255, 255);">
       </path>


       <path 
        d="M281.2,504.5c-0.2,0.1-0.3,0.2-0.5,0.2c0.2,0.5,0.4,1.1,0.7,1.6c1.1,3,0.9,6.5-0.5,9.4l-6.9,14.6c-1.2,2.5-3.9,3.9-6.6,3.5   
        l-12.5-2.1c-0.3,0-0.6-0.1-0.9-0.1c-1.5,0-3,0.6-4,1.8c-1.2,1.4-1.7,3.2-1.2,5c0.1,0.2,0.1,0.4,0.2,0.7c1.1,2.9,2.5,6.2,3.8,9.6   
        c5.5,11.2,12.4,17.5,16.6,20.5c-3.9-4.5-6.8-10.5-8.7-15.2c-2.1-5.1-3.6-10-4.2-12.9c-0.1-0.6,0-1.3,0.4-1.8c0.4-0.5,1-0.8,1.7-0.8
           h10.9c2.9,0,5.6-1.5,7.2-3.9c3.4-5.4,9.1-15.3,8.3-20.9C284.8,513.6,283.9,508.8,281.2,504.5z"
            name="Layer 3" zoom="1" data-layer-id="0929190680200" style="fill: rgb(255, 255, 255);">
    </path>
            
     <path d="M743.9,536.7c-61.7,0.3-113.8-2.2-153.9-5.2c-28-2.1-55.8-5.6-83.4-10.4c-1.4-1-5.3-3.9-10.7-7.5l21.4,2  
             c8.2,0.8,16.3,1.7,24.5,2.9c6.4,0.9,13.1,1.8,20.2,2.6c35.1,4.2,77.4,8,112.4,10.7c0.7,0.1,1.3,0.1,2,0.2c29.2,2.3,53,3.8,62.8,4.5 
               c0.2,0,0.3,0,0.5,0c0.3,0,0.6,0,0.9,0.1c0.9,0.1,1.6,0.1,2.2,0.1c0.1,0,0.2,0,0.3,0l0.2,0l0.1,0c0.1,0,0.1,0,0.2,0L743.9,536.7z" 
               name="Layer 4" zoom="1" data-layer-id="0296744280200" style="fill: rgb(255, 255, 255);"></path>
               
               <path class="st0" d="M431.1,471.3c2.3-0.8,8.8-3,23-6.1c18.5-4.1,42.9-12.4,77.9-16.9c34.9-4.5,84.5,0.5,93.9,2.7   
               c9.4,2.1,32.9,8,80.9,27.6c0,0-45.7-25-81.3-31c-35.4-6-93.6-16.7-204.4,21.9c-1.5,0.5-2.3,2.4-1.3,3.8c2.3,3.3,11.9,8.5,46.4,12.9   
               c0,0-30.3-8-35.5-12.7C430,472.7,430.2,471.6,431.1,471.3z" name="Layer 5" zoom="1" 
               data-layer-id="4591694680200" style="fill: rgb(255, 255, 255);"></path>
               
               <path d="M951.5,535.1c-0.2-2-0.6-4-1.3-5.9c-0.7-1.9-1.5-3.6-2.6-5.3c-1.1-1.7-2.3-3.2-3.7-4.7c-1.4-1.5-2.9-2.8-4.5-4.1  
                c-1.6-1.3-3.4-2.5-5.1-3.6c-1.3-0.8-2.5-1.5-3.8-2.2c0,0,0,0,0,0c-0.5-0.3-1.1-0.6-1.6-0.8c-1.8-0.9-3.7-1.8-5.5-2.5 
                  c-1.8-0.8-3.6-1.4-5.4-2.1c-1.6-0.6-3.3-1.1-4.9-1.6c-1.4-0.4-2.8-0.8-4.3-1.2c-2.9-0.8-5.9-1.4-8.8-2c-3.3-0.6-6.6-1.3-9.8-1.9  
                   c-3.3-0.6-6.6-1.2-9.9-1.7c-3.3-0.5-6.6-1-9.9-1.5c-3.3-0.5-6.5-0.9-9.8-1.3c-3.2-0.4-6.5-0.8-9.7-1.2c-3.2-0.4-6.3-0.7-9.5-1   
                   c-1.3-0.1-2.6-0.3-3.9-0.4c-1.8-0.2-3.6-0.3-5.4-0.5c-1.3-0.1-2.6-0.2-4-0.3c-1.7-0.2-3.4-0.3-5.1-0.4c-2.9-0.2-5.9-0.5-8.8-0.7 
                     c-2.8-0.2-5.6-0.4-8.4-0.5c-0.4,0-0.8,0-1.3-0.1c-0.3,0-0.5,0-0.8,0c-0.7,0-1.4-0.1-2-0.1c-29.1-1.5-49.2-1.2-49.2-1.2
                        c-0.1-0.1-0.3-0.1-0.4-0.2c-38-19.6-81-35.6-103.1-43.3c-11.9-4.2-24.2-7.2-36.7-8.9c-26.7-3.7-53.5-3.5-78.8-1.2 
                          c-1.3,0.1-2.5,0.2-3.8,0.3c-45.6,4.5-86.1,15.5-112,22.6c-37.1,10.2-89,25.5-105.8,30.5c-4.3,1.3-8.8,1.9-13.3,1.8  
                           c-16.6-0.5-31.2-5.7-31.2-5.7c-0.3,0.3-0.6,0.7-0.9,1c-0.5,0.6-0.8,1.3-1.1,2.1c0,0,0,0,0,0.1c0,0,0,0.1,0,0.1   
                    c-0.2,0.6-0.2,1.3-0.1,1.9c0,0.3,0.1,0.7,0.2,1c0.1,0.4,0.3,0.7,0.5,1c0,0,0.8,0.9,0.8,0.9c0.2,0.2,1.2,1.3,2.7,3.1   
                c0,0,0.1,0.1,0.1,0.1c0.1,0.1,0.1,0.1,0.2,0.2c2.5,2.8,6.1,7,9.2,10.9c1.8-0.8,3.5-1.7,3.9-1.8c1.8-0.5,3.6-0.8,5.5-0.9l62.6-1.3  
             c10,0,19.4,0.2,28.2,0.6c3.1,0.2,7.8,0.8,12.9,2.2c1.4,0.4,2.7,0.9,4.1,1.3c3.4,1.2,6.8,2.5,9.4,3.9c2.6,1.4,4.5,2.8,4.9,4.2   
             c0.6,2.1-0.3,4.4-2.8,6.9c-0.3,0.3-0.8,0.7-1.3,1.2c-0.2,0.2-0.4,0.3-0.6,0.5c-0.4,0.3-0.8,0.6-1.2,0.8   
             c-18.9,13.6-20.4,22.6-20.5,23.1c6-8.5,22.6-26.4,57.6-28c0.4,0,32-0.7,58.3,25.6c0.3,0.2,0.5,0.5,0.7,0.7 
               c-0.2-0.2-0.3-0.6-0.4-0.9c-0.5-1-1.1-1.9-1.8-2.9c-1-1.5-2.2-3-3.4-4.4c-1.7-2-3.6-3.8-5.5-5.5c-2.5-2.2-5.2-4.3-8-6.2   
               c-0.7-0.5-1.4-0.9-2-1.4c0,0,0,0-0.1,0c-4.3-2.8-8.9-5.3-13.6-7.4c-4.6-2-9.4-3.3-13.7-5.8c-0.7-0.4-1.4-0.9-2-1.3  
                c38.6,6.4,53.8,14.7,54.5,15.1c-40.7-33.6-161.6-30.5-175.7-30c6.3-1.8,41.8-12,66.9-20.9c27.7-9.8,85.8-23.9,85.8-23.9  
                 c21.7-5.3,42.3-8.2,60.8-9.5c0.9-0.1,1.8-0.1,2.6-0.2c0.3,0,0.6,0,1-0.1c21.2-1.3,39.4-0.7,53.1,0.4c16.9,1.4,33.5,4.9,49.5,10.5
                    c39.8,14,86.9,36.9,86.9,36.9c-80.1-3.4-199.3,8.2-207.3,9c81.6-4.6,149.5-5.6,205.6-4.4c25,0.5,47.7,1.5,68.3,2.8   
                    c-3.9,1-8,2.4-12.5,3.9c-26.9,9.4-40.6,29.7-44.5,36.3c0,0,0,0,0,0c0.5-0.7,12.4-17.1,36.7-26.7c0.4-0.2,0.7-0.3,1.1-0.4 
                      c9.2-3.7,19.5-5.9,30.5-6.4c1.9-0.1,3.8-0.1,5.6,0h0.3c35.5,0.1,65.1,29.7,66,30.6c-11.1-18.4-37.5-31.1-37.7-31.2l-0.2-0.1  
                       l-2.6-2.4c11.8,1.2,22.6,2.5,32.5,3.8c0,0,0.1,0,0.2,0c6.4,0.9,12.5,1.8,18.2,2.7c20.7,4,51.9,13.5,56,34.4  
                        C951.6,536.9,951.5,536,951.5,535.1z" name="Layer 6" zoom="1" data-layer-id="0933377980200" style="fill: #0089A6;"></path></svg> 

 